<svg width="437" height="132" viewBox="0 0 437 132" fill="none" xmlns="http://www.w3.org/2000/svg">
<g clip-path="url(#clip0_1_92)">
<path d="M37.6434 41.9241H50.6926L29.2398 16.8523L49.736 0.821999H35.4574L11.2038 20.257V0.821999H0.203613V41.9241H11.2038V30.9437L21.5201 22.8994L37.6434 41.9235V41.9241ZM98.79 34.6429H67.158V24.4261H96.1928V17.2037H67.158V8.10261H98.1068V0.821352H56.1584V41.9235H98.79V34.6422V34.6429ZM144.086 0.821352L129.192 19.4345L114.298 0.821352H101.522L123.658 27.3623V41.9241H134.726V27.3623L156.862 0.821352H144.086ZM184.599 17.4386C176.196 16.4407 168.271 16.2058 168.271 12.3305C168.271 9.51214 170.594 7.22247 180.432 7.22247C189.245 7.22247 193.208 9.8642 193.618 12.8004H204.275C204.002 5.51913 197.443 9.91821e-05 180.568 9.91821e-05C163.01 9.91821e-05 157.681 6.22389 157.681 12.9771C157.681 19.4358 161.78 22.8412 174.829 24.7205C187.878 26.5993 195.257 26.1883 195.257 30.4162C195.257 33.5285 191.43 35.5832 182.344 35.5832C173.668 35.5832 167.928 33.4107 167.656 29.1245H156.179C156.179 37.4619 164.854 42.8056 181.388 42.8056C198.4 42.8056 206.94 38.0496 206.94 29.1245C206.94 19.9645 197.786 19.0248 184.599 17.4393V17.4386ZM213.772 0.821352V41.9235H224.772V0.821352H213.772ZM276.968 34.6429H245.336V24.4261H274.372V17.2037H245.336V8.10261H276.285V0.821352H234.336V41.9235H276.968V34.6422V34.6429Z" fill="white"/>
<path d="M24.7306 70.5761C17.4187 69.7076 10.5231 69.5038 10.5231 66.1314C10.5231 63.6786 12.5441 61.686 21.1043 61.686C28.7732 61.686 32.2213 63.9847 32.5782 66.5391H41.8517C41.6142 60.204 35.9069 55.4014 21.2238 55.4014C5.94608 55.4014 1.30901 60.8169 1.30901 66.6925C1.30901 72.3125 4.87588 75.2758 16.2304 76.9112C27.5842 78.546 34.0054 78.1887 34.0054 81.8672C34.0054 84.5749 30.6767 86.3631 22.7697 86.3631C15.2196 86.3631 10.2262 84.4727 9.98802 80.7431H0.00128174C0.00128174 87.9985 7.55137 92.6477 21.9376 92.6477C36.7403 92.6477 44.1709 88.5091 44.1709 80.7431C44.1709 72.7732 36.2045 71.9552 24.7312 70.5755L24.7306 70.5761ZM88.815 56.1171H47.7365V62.4529H63.4899V91.8821H73.0609V62.4529H88.8143V56.1171H88.815ZM138.93 91.8821L129.002 78.5984C134.471 76.963 137.562 73.5913 137.562 67.9706C137.562 60.767 131.737 56.1171 120.442 56.1171H94.7611V91.8821H104.331V79.773H119.254C119.314 79.773 119.432 79.773 119.491 79.773L128.289 91.8821H138.931H138.93ZM104.331 62.4529H120.086C126.03 62.4529 127.814 64.905 127.814 67.9706C127.814 70.9346 125.911 73.5401 120.086 73.5401H104.331V62.4529ZM181.376 85.547H153.851V76.6569H179.117V70.3723H153.851V62.4529H180.781V56.1171H144.28V91.8821H181.376V85.547ZM223.822 91.8821H233.987L214.786 56.1171H203.015L183.754 91.8821H193.92L197.487 84.8823H220.315L223.823 91.8821H223.822ZM200.697 78.5984L208.901 62.3513L217.104 78.5984H200.697ZM279.405 56.1178L266.208 83.6061L253.07 56.1178H238.149V91.8827H247.719V63.6288L261.69 91.8827H270.785L284.756 63.6288V91.8827H294.327V56.1178H279.405ZM339.745 85.5476H312.22V76.6575H337.486V70.3729H312.22V62.4535H339.15V56.1178H302.65V91.8827H339.745V85.5476ZM390.453 91.8827L380.525 78.599C385.994 76.9636 389.085 73.5919 389.085 67.9713C389.085 60.7677 383.26 56.1178 371.965 56.1178H346.284V91.8827H355.854V79.7736H370.777C370.837 79.7736 370.955 79.7736 371.014 79.7736L379.812 91.8827H390.454H390.453ZM355.854 62.4535H371.609C377.553 62.4535 379.337 64.9056 379.337 67.9713C379.337 70.9353 377.434 73.5408 371.609 73.5408H355.854V62.4535ZM417.561 70.5768C410.249 69.7083 403.353 69.5044 403.353 66.132C403.353 63.6793 405.374 61.6866 413.935 61.6866C421.604 61.6866 425.052 63.9854 425.409 66.5397H434.683C434.445 60.2046 428.738 55.402 414.054 55.402C398.776 55.402 394.139 60.8175 394.139 66.6931C394.139 72.3131 397.706 75.2765 409.061 76.9119C420.415 78.5466 426.836 78.1894 426.836 81.8679C426.836 84.5756 423.507 86.3637 415.6 86.3637C408.05 86.3637 403.057 84.4733 402.818 80.7437H392.832C392.832 87.9991 400.381 92.6483 414.768 92.6483C429.57 92.6483 437.001 88.5097 437.001 80.7437C437.001 72.7739 429.035 71.9559 417.562 70.5761L417.561 70.5768Z" fill="white"/>
<path d="M0.00128174 110.917H1.7149V131.645H0.00128174V110.917ZM16.154 110.917H17.9721L28.9148 128.743H28.9846C28.9148 127.578 28.8802 125.989 28.8802 123.976V110.917H30.5932V131.645H28.7751L17.7965 113.819H17.7267C17.7965 114.984 17.8318 116.573 17.8318 118.586V131.645H16.154V110.917ZM42.3412 110.917H44.1585L49.0886 125.308C49.5787 126.788 50.0211 128.268 50.4172 129.75H50.487C50.8838 128.269 51.3269 126.789 51.8156 125.308L56.7457 110.917H58.5637L51.4665 131.645H49.4736L42.3412 110.917ZM70.3117 110.917H72.0247V131.645H70.3117V110.917ZM90.31 112.279H83.6317V110.917H98.7358V112.279H92.0934L92.0582 131.645H90.31V112.279ZM113.805 110.917H115.728L123.105 131.645H121.322L119.364 126.078H110.203L108.281 131.645H106.463L113.805 110.917H113.805ZM118.91 124.745L116.042 116.632L114.819 112.753H114.749L113.49 116.692L110.693 124.746H118.91L118.91 124.745ZM137.51 112.279H130.832V110.917H145.936V112.279H139.294L139.258 131.645H137.511V112.279H137.51ZM157.544 110.917H159.257V131.645H157.544V110.917ZM180.338 132C177.751 132 175.898 131.541 174.78 130.623C173.661 129.705 173.102 128.18 173.102 126.049V116.513C173.102 114.381 173.661 112.856 174.78 111.939C175.898 111.021 177.751 110.562 180.338 110.562C182.926 110.562 184.779 111.021 185.898 111.939C187.016 112.857 187.576 114.381 187.576 116.513V126.049C187.576 128.18 187.016 129.706 185.898 130.623C184.779 131.541 182.926 132 180.338 132ZM174.849 126.049C174.849 127.213 175.018 128.126 175.356 128.787C175.695 129.448 176.26 129.922 177.052 130.209C177.845 130.495 178.94 130.638 180.338 130.638C181.737 130.638 182.832 130.495 183.625 130.209C184.418 129.922 184.983 129.448 185.321 128.787C185.659 128.126 185.828 127.213 185.828 126.049V116.513C185.828 115.349 185.659 114.441 185.321 113.789C184.983 113.138 184.418 112.664 183.625 112.368C182.832 112.072 181.737 111.924 180.338 111.924C178.94 111.924 177.851 112.072 177.07 112.368C176.289 112.664 175.723 113.138 175.374 113.789C175.024 114.441 174.85 115.349 174.85 116.513V126.049H174.849ZM201.422 110.917H203.24L214.182 128.743H214.252C214.182 127.578 214.148 125.989 214.148 123.976V110.917H215.861V131.645H214.043L203.064 113.819H202.994C203.064 114.984 203.099 116.573 203.099 118.586V131.645H201.422V110.917ZM234.915 110.917H236.838L244.215 131.645H242.432L240.475 126.078H231.314L229.391 131.645H227.573L234.916 110.917H234.915ZM240.02 124.745L237.152 116.632L235.929 112.753H235.86L234.601 116.692L231.804 124.746H240.02L240.02 124.745ZM255.928 110.917H257.641V130.282H267.466V131.645H255.928V110.917Z" fill="#E5D0A3"/>
</g>
<defs>
<clipPath id="clip0_1_92">
<rect width="437" height="132" fill="white"/>
</clipPath>
</defs>
</svg>
