<svg width="323" height="97" viewBox="0 0 323 97" fill="none" xmlns="http://www.w3.org/2000/svg">
<g clip-path="url(#clip0_11_51)">
<path d="M27.8233 30.8079H37.4684L21.6119 12.3839L36.7613 0.604048H26.2075L8.28094 14.8859V0.604048H0.150391V30.8079H8.28094V22.7389L15.906 16.8276L27.8233 30.8074V30.8079ZM73.0186 25.4573H49.6384V17.9495H71.0989V12.6421H49.6384V5.9542H72.5136V0.603573H41.5083V30.8074H73.0186V25.4568V25.4573ZM106.498 0.603573L95.4896 14.2814L84.4811 0.603573H75.0381L91.399 20.1071V30.8079H99.5798V20.1071L115.941 0.603573H106.498ZM136.443 12.8147C130.232 12.0814 124.374 11.9088 124.374 9.06109C124.374 6.98998 126.091 5.30742 133.363 5.30742C139.877 5.30742 142.806 7.24869 143.109 9.40635H150.986C150.784 4.05573 145.936 7.62939e-05 133.464 7.62939e-05C120.486 7.62939e-05 116.547 4.57362 116.547 9.53618C116.547 14.2824 119.576 16.7848 129.222 18.1658C138.866 19.5464 144.32 19.2444 144.32 22.3513C144.32 24.6383 141.492 26.1483 134.776 26.1483C128.363 26.1483 124.121 24.5518 123.919 21.4021H115.436C115.436 27.5288 121.849 31.4556 134.069 31.4556C146.644 31.4556 152.956 27.9607 152.956 21.4021C152.956 14.6709 146.189 13.9804 136.443 12.8152V12.8147ZM158.005 0.603573V30.8074H166.136V0.603573H158.005ZM204.716 25.4573H181.335V17.9495H202.796V12.6421H181.335V5.9542H204.211V0.603573H173.205V30.8074H204.716V25.4568V25.4573Z" fill="white"/>
<path d="M18.2792 51.8627C12.8747 51.2245 7.77798 51.0747 7.77798 48.5965C7.77798 46.7941 9.27175 45.3299 15.5989 45.3299C21.2672 45.3299 23.8158 47.0191 24.0796 48.8961H30.9339C30.7584 44.2408 26.5399 40.7116 15.6872 40.7116C4.39496 40.7116 0.967556 44.6912 0.967556 49.0089C0.967556 53.1387 3.60394 55.3163 11.9964 56.5181C20.3884 57.7194 25.1344 57.4569 25.1344 60.16C25.1344 62.1498 22.6741 63.4638 16.8298 63.4638C11.2493 63.4638 7.55853 62.0746 7.38248 59.3339H0.000976562C0.000976562 64.6655 5.58148 68.082 16.2148 68.082C27.1559 68.082 32.6481 65.0408 32.6481 59.3339C32.6481 53.4773 26.7599 52.8762 18.2796 51.8623L18.2792 51.8627ZM65.6459 41.2376H35.2835V45.8934H46.9273V67.5194H54.0016V45.8934H65.6454V41.2376H65.6459ZM102.687 67.5194L95.3494 57.7579C99.3918 56.5561 101.677 54.0784 101.677 49.9481C101.677 44.6546 97.3708 41.2376 89.0222 41.2376H70.0408V67.5194H77.1146V58.6211H88.1439C88.1883 58.6211 88.2756 58.6211 88.3195 58.6211L94.8227 67.5194H102.688H102.687ZM77.1146 45.8934H88.7589C93.1524 45.8934 94.4711 47.6953 94.4711 49.9481C94.4711 52.1262 93.0646 54.0408 88.7589 54.0408H77.1146V45.8934ZM134.06 62.8641H113.716V56.3312H132.391V51.7129H113.716V45.8934H133.621V41.2376H106.642V67.5194H134.06V62.8641ZM165.434 67.5194H172.947L158.755 41.2376H150.055L135.818 67.5194H143.332L145.968 62.3757H162.842L165.435 67.5194H165.434ZM148.341 57.7579L154.405 45.8187L160.469 57.7579H148.341ZM206.517 41.2381L196.763 61.4378L187.052 41.2381H176.023V67.5199H183.097V46.7575L193.423 67.5199H200.146L210.472 46.7575V67.5199H217.546V41.2381H206.517ZM251.116 62.8646H230.771V56.3317H249.446V51.7134H230.771V45.8939H250.676V41.2381H223.698V67.5199H251.116V62.8646ZM288.596 67.5199L281.258 57.7584C285.3 56.5566 287.585 54.0789 287.585 49.9486C287.585 44.655 283.279 41.2381 274.931 41.2381H255.949V67.5199H263.023V58.6215H274.052C274.097 58.6215 274.184 58.6215 274.228 58.6215L280.731 67.5199H288.596H288.596ZM263.023 45.8939H274.667C279.061 45.8939 280.379 47.6958 280.379 49.9486C280.379 52.1267 278.973 54.0413 274.667 54.0413H263.023V45.8939ZM308.632 51.8632C303.228 51.225 298.131 51.0752 298.131 48.597C298.131 46.7946 299.625 45.3303 305.952 45.3303C311.62 45.3303 314.169 47.0196 314.432 48.8966H321.287C321.112 44.2413 316.893 40.7121 306.04 40.7121C294.748 40.7121 291.32 44.6916 291.32 49.0093C291.32 53.1392 293.957 55.3168 302.349 56.5186C310.742 57.7198 315.487 57.4573 315.487 60.1605C315.487 62.1502 313.027 63.4642 307.183 63.4642C301.602 63.4642 297.911 62.0751 297.735 59.3344H290.354C290.354 64.666 295.934 68.0825 306.568 68.0825C317.508 68.0825 323.001 65.0412 323.001 59.3344C323.001 53.4778 317.113 52.8767 308.633 51.8627L308.632 51.8632Z" fill="white"/>
<path d="M0.000976562 81.5073H1.26756V96.7388H0.000976562V81.5073ZM11.94 81.5073H13.2837L21.3718 94.6064H21.4234C21.3718 93.7504 21.3463 92.5828 21.3463 91.1033V81.5073H22.6124V96.7388H21.2686L13.154 83.6398H13.1024C13.154 84.4958 13.18 85.6633 13.18 87.1428V96.7388H11.94V81.5073ZM31.2957 81.5073H32.6389L36.2829 92.0821C36.6451 93.1702 36.9721 94.2578 37.2649 95.3464H37.3165C37.6098 94.2583 37.9373 93.1706 38.2985 92.0821L41.9425 81.5073H43.2863L38.0405 96.7388H36.5675L31.2957 81.5073ZM51.9696 81.5073H53.2357V96.7388H51.9696V81.5073ZM66.7509 82.5084H61.8148V81.5073H72.9787V82.5084H68.0691L68.043 96.7388H66.7509V82.5084ZM84.1165 81.5073H85.5379L90.9906 96.7388H89.6729L88.2255 92.648H81.4546L80.0336 96.7388H78.6904L84.117 81.5073H84.1165ZM87.8898 91.6688L85.7704 85.7071L84.8661 82.8565H84.8144L83.884 85.7508L81.8168 91.6693H87.8902L87.8898 91.6688ZM101.638 82.5084H96.7018V81.5073H107.866V82.5084H102.956L102.93 96.7388H101.638V82.5084H101.638ZM116.445 81.5073H117.711V96.7388H116.445V81.5073ZM133.293 96.9999C131.381 96.9999 130.012 96.6627 129.185 95.9879C128.358 95.3136 127.945 94.1931 127.945 92.6266V85.6196C127.945 84.053 128.358 82.9321 129.185 82.2582C130.012 81.5834 131.381 81.2462 133.293 81.2462C135.206 81.2462 136.576 81.5834 137.403 82.2582C138.23 82.9326 138.643 84.053 138.643 85.6196V92.6266C138.643 94.1931 138.23 95.314 137.403 95.9879C136.576 96.6627 135.206 96.9999 133.293 96.9999ZM129.237 92.6266C129.237 93.4821 129.361 94.1532 129.611 94.6392C129.861 95.1248 130.279 95.4733 130.865 95.6835C131.451 95.8937 132.26 95.9988 133.293 95.9988C134.328 95.9988 135.137 95.8937 135.723 95.6835C136.309 95.4729 136.727 95.1248 136.976 94.6392C137.226 94.1532 137.351 93.4821 137.351 92.6266V85.6196C137.351 84.764 137.226 84.0968 136.976 83.6179C136.727 83.139 136.309 82.7909 135.723 82.5735C135.137 82.3562 134.328 82.2473 133.293 82.2473C132.26 82.2473 131.455 82.3562 130.878 82.5735C130.301 82.7909 129.882 83.1395 129.624 83.6179C129.366 84.0968 129.237 84.764 129.237 85.6196V92.6266H129.237ZM148.877 81.5073H150.221L158.309 94.6064H158.36C158.309 93.7504 158.283 92.5828 158.283 91.1033V81.5073H159.549V96.7388H158.206L150.091 83.6398H150.039C150.091 84.4958 150.117 85.6633 150.117 87.1428V96.7388H148.877V81.5073ZM173.633 81.5073H175.054L180.507 96.7388H179.189L177.742 92.648H170.971L169.55 96.7388H168.207L173.634 81.5073H173.633ZM177.406 91.6688L175.287 85.7071L174.383 82.8565H174.331L173.401 85.7508L171.333 91.6693H177.406L177.406 91.6688ZM189.164 81.5073H190.431V95.7378H197.692V96.7388H189.164V81.5073Z" fill="#E5D0A3"/>
</g>
<defs>
<clipPath id="clip0_11_51">
<rect width="323" height="97" fill="white"/>
</clipPath>
</defs>
</svg>
