<svg width="253" height="77" viewBox="0 0 253 77" fill="none" xmlns="http://www.w3.org/2000/svg">
<g clip-path="url(#clip0_1_9468)">
<path d="M21.7935 24.4558H29.3483L16.9282 9.83051L28.7944 0.479503H20.5279L6.48631 11.8166V0.479503H0.117798V24.4558H6.48631V18.0505L12.4589 13.358L21.7935 24.4554V24.4558ZM57.1941 20.2083H38.8808V14.2485H55.6905V10.0355H38.8808V4.72653H56.7986V0.479125H32.5127V24.4554H57.1941V20.208V20.2083ZM83.4181 0.479125L74.7953 11.3368L66.1725 0.479125H58.776L71.5912 15.9613V24.4558H77.999V15.9613L90.8146 0.479125H83.4181ZM106.873 10.1725C102.008 9.59041 97.42 9.45337 97.42 7.19282C97.42 5.54875 98.7649 4.21311 104.461 4.21311C109.563 4.21311 111.857 5.75412 112.094 7.4669H118.265C118.106 3.21949 114.309 6.10352e-05 104.54 6.10352e-05C94.3742 6.10352e-05 91.2891 3.63061 91.2891 7.56996C91.2891 11.3375 93.662 13.324 101.217 14.4203C108.771 15.5162 113.043 15.2765 113.043 17.7428C113.043 19.5583 110.828 20.7569 105.568 20.7569C100.544 20.7569 97.2216 19.4896 97.0637 16.9893H90.4191C90.4191 21.8528 95.4418 24.9699 105.014 24.9699C114.863 24.9699 119.807 22.1956 119.807 16.9893C119.807 11.646 114.507 11.0978 106.873 10.1729V10.1725ZM123.763 0.479125V24.4554H130.131V0.479125H123.763ZM160.35 20.2083H142.037V14.2485H158.847V10.0355H142.037V4.72653H159.954V0.479125H135.668V24.4554H160.35V20.208V20.2083Z" fill="white"/>
<path d="M14.3177 41.1694C10.0845 40.6628 6.09232 40.5438 6.09232 38.5766C6.09232 37.1458 7.26236 35.9835 12.2183 35.9835C16.6582 35.9835 18.6544 37.3244 18.8611 38.8144H24.2299C24.0924 35.119 20.7882 32.3174 12.2874 32.3174C3.44246 32.3174 0.757836 35.4765 0.757836 38.9039C0.757836 42.1822 2.82287 43.9109 9.39653 44.8649C15.9698 45.8185 19.6873 45.6101 19.6873 47.7559C19.6873 49.3354 17.7602 50.3784 13.1824 50.3784C8.81132 50.3784 5.92042 49.2757 5.78253 47.1001H0.000732422C0.000732422 51.3324 4.37184 54.0445 12.7007 54.0445C21.2707 54.0445 25.5726 51.6303 25.5726 47.1001C25.5726 42.451 20.9605 41.9739 14.3181 41.169L14.3177 41.1694ZM51.4192 32.735H27.6369V36.4308H36.7573V53.5979H42.2984V36.4308H51.4188V32.735H51.4192ZM80.4332 53.5979L74.6854 45.849C77.8517 44.8951 79.6413 42.9282 79.6413 39.6495C79.6413 35.4474 76.2687 32.735 69.7295 32.735H54.8617V53.5979H60.4024V46.5342H69.0415C69.0763 46.5342 69.1446 46.5342 69.179 46.5342L74.2729 53.5979H80.4336H80.4332ZM60.4024 36.4308H69.5232C72.9645 36.4308 73.9974 37.8612 73.9974 39.6495C73.9974 41.3785 72.8958 42.8984 69.5232 42.8984H60.4024V36.4308ZM105.007 49.9024H89.0715V44.7165H103.699V41.0505H89.0715V36.4308H104.663V32.735H83.5308V53.5979H105.007V49.9024ZM129.581 53.5979H135.466L124.35 32.735H117.535L106.384 53.5979H112.269L114.334 49.5147H127.551L129.582 53.5979H129.581ZM116.193 45.849L120.942 36.3716L125.692 45.849H116.193ZM161.761 32.7354L154.12 48.7702L146.514 32.7354H137.876V53.5982H143.416V37.1168L151.505 53.5982H156.77L164.859 37.1168V53.5982H170.4V32.7354H161.761ZM196.694 49.9028H180.759V44.7169H195.386V41.0508H180.759V36.4312H196.35V32.7354H175.218V53.5982H196.694V49.9028ZM226.052 53.5982L220.304 45.8494C223.47 44.8954 225.26 42.9286 225.26 39.6499C225.26 35.4478 221.887 32.7354 215.348 32.7354H200.48V53.5982H206.021V46.5346H214.66C214.695 46.5346 214.763 46.5346 214.798 46.5346L219.891 53.5982H226.052H226.052ZM206.021 36.4312H215.142C218.584 36.4312 219.616 37.8616 219.616 39.6499C219.616 41.3789 218.514 42.8988 215.142 42.8988H206.021V36.4312ZM241.746 41.1698C237.513 40.6631 233.52 40.5442 233.52 38.577C233.52 37.1462 234.69 35.9839 239.647 35.9839C244.086 35.9839 246.083 37.3248 246.289 38.8148H251.658C251.521 35.1193 248.217 32.3178 239.716 32.3178C230.871 32.3178 228.186 35.4769 228.186 38.9043C228.186 42.1826 230.251 43.9113 236.825 44.8652C243.398 45.8188 247.115 45.6104 247.115 47.7562C247.115 49.3357 245.188 50.3788 240.611 50.3788C236.239 50.3788 233.349 49.2761 233.211 47.1005H227.429C227.429 51.3328 231.8 54.0448 240.129 54.0448C248.698 54.0448 253.001 51.6306 253.001 47.1005C253.001 42.4514 248.389 41.9742 241.746 41.1694L241.746 41.1698Z" fill="white"/>
<path d="M0.000732422 64.7017H0.992826V76.7927H0.000732422V64.7017ZM9.35232 64.7017H10.4049L16.7401 75.0999H16.7806C16.7401 74.4204 16.7201 73.4936 16.7201 72.3191V64.7017H17.7118V76.7927H16.6593L10.3032 66.3944H10.2628C10.3032 67.074 10.3236 68.0008 10.3236 69.1752V76.7927H9.35232V64.7017ZM24.5133 64.7017H25.5655L28.4197 73.0961C28.7034 73.9598 28.9596 74.8232 29.1889 75.6873H29.2293C29.459 74.8236 29.7155 73.9602 29.9985 73.0961L32.8528 64.7017H33.9053L29.7964 76.7927H28.6426L24.5133 64.7017ZM40.7068 64.7017H41.6985V76.7927H40.7068V64.7017ZM52.2847 65.4963H48.4184V64.7017H57.1628V65.4963H53.3172L53.2968 76.7927H52.2847V65.4963ZM65.8869 64.7017H67.0003L71.2713 76.7927H70.2391L69.1053 73.5453H63.8018L62.6889 76.7927H61.6367L65.8873 64.7017H65.8869ZM68.8424 72.768L67.1824 68.0355L66.474 65.7727H66.4336L65.7048 68.0702L64.0856 72.7684H68.8428L68.8424 72.768ZM79.6111 65.4963H75.7447V64.7017H84.4892V65.4963H80.6436L80.6232 76.7927H79.6115V65.4963H79.6111ZM91.2095 64.7017H92.2012V76.7927H91.2095V64.7017ZM104.406 76.9999C102.909 76.9999 101.836 76.7323 101.188 76.1966C100.541 75.6613 100.217 74.7718 100.217 73.5283V67.966C100.217 66.7225 100.541 65.8327 101.188 65.2978C101.836 64.7621 102.909 64.4944 104.406 64.4944C105.905 64.4944 106.978 64.7621 107.625 65.2978C108.273 65.8331 108.596 66.7225 108.596 67.966V73.5283C108.596 74.7718 108.273 75.6616 107.625 76.1966C106.978 76.7323 105.905 76.9999 104.406 76.9999ZM101.229 73.5283C101.229 74.2075 101.326 74.7401 101.522 75.1259C101.718 75.5114 102.045 75.7881 102.504 75.955C102.963 76.1218 103.597 76.2053 104.406 76.2053C105.216 76.2053 105.85 76.1218 106.309 75.955C106.768 75.7877 107.095 75.5114 107.291 75.1259C107.487 74.7401 107.585 74.2075 107.585 73.5283V67.966C107.585 67.2869 107.487 66.7572 107.291 66.3771C107.095 65.9969 106.768 65.7206 106.309 65.5481C105.85 65.3755 105.216 65.2891 104.406 65.2891C103.597 65.2891 102.966 65.3755 102.514 65.5481C102.062 65.7206 101.734 65.9973 101.532 66.3771C101.33 66.7572 101.229 67.2869 101.229 67.966V73.5283H101.229ZM116.612 64.7017H117.665L124 75.0999H124.041C124 74.4204 123.98 73.4936 123.98 72.3191V64.7017H124.972V76.7927H123.92L117.563 66.3944H117.523C117.563 67.074 117.584 68.0008 117.584 69.1752V76.7927H116.612V64.7017ZM136.004 64.7017H137.117L141.388 76.7927H140.355L139.222 73.5453H133.919L132.806 76.7927H131.753L136.004 64.7017H136.004ZM138.959 72.768L137.299 68.0355L136.591 65.7727H136.55L135.822 68.0702L134.202 72.7684H138.959L138.959 72.768ZM148.169 64.7017H149.161V75.998H154.848V76.7927H148.169V64.7017Z" fill="#E5D0A3"/>
</g>
<defs>
<clipPath id="clip0_1_9468">
<rect width="253" height="77" fill="white"/>
</clipPath>
</defs>
</svg>
