<svg width="79" height="81" viewBox="0 0 79 81" fill="none" xmlns="http://www.w3.org/2000/svg">
<g clip-path="url(#clip0_1_9456)">
<path fill-rule="evenodd" clip-rule="evenodd" d="M68.3212 28.5507L69.6677 29.2672L76.4232 32.7341L74.3106 32.3412V46.9023L72.732 48.0117L79 48.289L74.3106 49.6296V49.6758L68.3212 51.3399V51.3168L68.2748 51.3399L68.3212 51.2937V28.62L68.2516 28.5507L68.3212 28.5969V28.5507Z" fill="white"/>
<path fill-rule="evenodd" clip-rule="evenodd" d="M44.0385 16.2546L65.7444 27.395V35.0454H59.7317V31.0006L40.9278 20.9465L35.8669 23.9281V26.4474L65.7676 41.933L65.6283 52.0102L50.7476 56.0781L29.0186 44.9377V37.2642H35.0312V41.3321L51.6066 50.5772L59.546 48.89V44.6834L29.7614 29.2672L29.8543 20.3225L40.9278 14.6598L44.0385 16.2546Z" fill="white"/>
<path fill-rule="evenodd" clip-rule="evenodd" d="M27.9275 68.9288L28.9721 72.4882L40.6724 80.8782L40.6956 81.0169L40.7885 80.9707L40.8117 80.9938V80.9475L53.0459 72.5113L54.0905 68.952L78.2339 50.4154L40.7885 69.784L3.52869 50.6697L27.9507 68.9288H27.9275ZM37.9098 71.7948C38.1652 71.7948 38.3741 71.8642 38.4902 72.026C38.6063 72.1878 38.6759 72.3958 38.6759 72.65C38.6759 72.8118 38.6527 72.9736 38.5831 73.1123C38.5366 73.251 38.467 73.3665 38.3741 73.4821C38.2813 73.5976 38.1884 73.7132 38.0955 73.8057C38.0027 73.8981 37.9098 74.0137 37.817 74.1061C37.7241 74.1986 37.6545 74.3141 37.608 74.4297C37.5384 74.5453 37.5152 74.6608 37.5152 74.7995V74.8457H38.6295V75.1924H37.1437V74.892C37.1437 74.7071 37.1669 74.5453 37.2366 74.4066C37.283 74.2679 37.3759 74.1524 37.4455 74.0368C37.5384 73.9212 37.6312 73.8057 37.7241 73.7132C37.817 73.6208 37.9098 73.5052 38.0027 73.4127C38.0955 73.2972 38.1652 73.1816 38.2116 73.0661C38.258 72.9505 38.3045 72.8118 38.3045 72.65C38.3045 72.4651 38.2813 72.3496 38.2116 72.2571C38.142 72.1646 38.0491 72.1184 37.9098 72.1184C37.7705 72.1184 37.6777 72.1646 37.608 72.2571C37.5384 72.3496 37.5152 72.4651 37.5152 72.6269V72.9274H37.1669V72.65C37.1669 72.3958 37.2366 72.1878 37.3527 72.026C37.4687 71.8642 37.6777 71.7948 37.933 71.7948H37.9098ZM39.0009 72.65C39.0009 72.3958 39.0706 72.1878 39.1866 72.026C39.3027 71.8642 39.5116 71.7948 39.767 71.7948C40.0224 71.7948 40.2313 71.8642 40.3474 72.026C40.4867 72.1878 40.5331 72.3958 40.5331 72.65V74.3835C40.5331 74.6377 40.4634 74.8457 40.3474 75.0075C40.2081 75.1693 40.0224 75.2387 39.767 75.2387C39.5116 75.2387 39.3027 75.1693 39.1866 75.0075C39.0706 74.8457 39.0009 74.6377 39.0009 74.3835V72.65ZM39.3723 74.4066C39.3723 74.5684 39.3956 74.6839 39.4652 74.7764C39.5349 74.8689 39.6277 74.9151 39.767 74.9151C39.9063 74.9151 39.9992 74.8689 40.0688 74.7764C40.1384 74.6839 40.1617 74.5684 40.1617 74.4066V72.6269C40.1617 72.4651 40.1384 72.3496 40.0688 72.2571C39.9992 72.1646 39.9063 72.1184 39.767 72.1184C39.6277 72.1184 39.5349 72.1646 39.4652 72.2571C39.3956 72.3496 39.3723 72.4651 39.3723 72.6269V74.4066ZM41.6706 71.7948C41.926 71.7948 42.1349 71.8642 42.251 72.026C42.3671 72.1878 42.4367 72.3958 42.4367 72.65C42.4367 72.8118 42.4135 72.9736 42.3438 73.1123C42.2974 73.251 42.2046 73.3665 42.1349 73.4821C42.0421 73.5976 41.9492 73.7132 41.8563 73.8057C41.7635 73.8981 41.6706 74.0137 41.5778 74.1061C41.4849 74.1986 41.4153 74.3141 41.3688 74.4297C41.2992 74.5453 41.276 74.6608 41.276 74.7995V74.8457H42.3903V75.1924H40.9045V74.892C40.9045 74.7071 40.9277 74.5453 40.9974 74.4066C41.0438 74.2679 41.1135 74.1524 41.2063 74.0368C41.2992 73.9212 41.392 73.8057 41.4849 73.7132C41.5778 73.6208 41.6706 73.5052 41.7635 73.4127C41.8563 73.2972 41.926 73.1816 41.9724 73.0661C42.0188 72.9505 42.0653 72.8118 42.0653 72.65C42.0653 72.4651 42.0421 72.3496 41.9724 72.2571C41.9028 72.1646 41.8099 72.1184 41.6706 72.1184C41.5313 72.1184 41.4385 72.1646 41.3688 72.2571C41.2992 72.3496 41.276 72.4651 41.276 72.6269V72.9274H40.9277V72.65C40.9277 72.3958 40.9974 72.1878 41.1135 72.026C41.2295 71.8642 41.4385 71.7948 41.6938 71.7948H41.6706ZM43.5278 71.7948C43.7832 71.7948 43.9921 71.8642 44.1082 72.026C44.2242 72.1878 44.2939 72.3958 44.2939 72.65V72.7425C44.2939 72.9043 44.2707 73.0661 44.201 73.1816C44.1314 73.2972 44.0385 73.3896 43.8992 73.4359C44.0385 73.4821 44.1546 73.5745 44.2242 73.6901C44.2939 73.8057 44.3171 73.9675 44.3171 74.1292V74.3835C44.3171 74.6377 44.2475 74.8457 44.1314 75.0075C44.0153 75.1693 43.8064 75.2387 43.551 75.2387C43.2957 75.2387 43.1099 75.1693 42.9706 75.0075C42.8546 74.8457 42.7849 74.6377 42.7849 74.3835V74.1524H43.1332V74.4066C43.1332 74.5684 43.1564 74.6839 43.226 74.7764C43.2957 74.8689 43.3885 74.9151 43.5278 74.9151C43.6671 74.9151 43.7599 74.8689 43.8296 74.7764C43.8992 74.6839 43.9225 74.5684 43.9225 74.3835V74.1292C43.9225 73.8057 43.7832 73.6439 43.5046 73.6208H43.2957V73.2741H43.5278C43.6439 73.2741 43.7599 73.2278 43.8296 73.1585C43.8992 73.0892 43.9457 72.9736 43.9457 72.8118V72.65C43.9457 72.4882 43.9225 72.3496 43.8528 72.2571C43.7832 72.1646 43.6903 72.1184 43.551 72.1184C43.4117 72.1184 43.3189 72.1646 43.2492 72.2571C43.1796 72.3496 43.1564 72.4651 43.1564 72.6269V72.8118H42.8081V72.65C42.8081 72.3958 42.8778 72.1878 42.9939 72.026C43.1099 71.8642 43.3189 71.7948 43.5742 71.7948H43.5278Z" fill="white"/>
<path fill-rule="evenodd" clip-rule="evenodd" d="M29.1811 11.008L30.1329 7.77218L40.7885 0.12182L40.8117 0.0062561L40.8813 0.0524819L40.9278 0.029369V0.0755947L52.0477 7.77218L52.9995 11.008L75.0071 27.9035L40.9046 10.2453L6.94128 27.6493L29.1811 11.008Z" fill="white"/>
<path fill-rule="evenodd" clip-rule="evenodd" d="M3.50549 50.6465L40.9278 66.8487L78.2108 50.3923L40.9278 62.1799L3.50549 50.6465Z" fill="white"/>
<path fill-rule="evenodd" clip-rule="evenodd" d="M28.1827 46.7174L33.94 56.1937L35.2168 52.7961L48.7278 56.5635L33.8007 48.8669L33.5918 50.6697L28.1827 46.7174Z" fill="white"/>
<path fill-rule="evenodd" clip-rule="evenodd" d="M35.9829 54.4833L47.5439 56.8639L38.7687 56.7021L35.9829 54.4833Z" fill="white"/>
<path fill-rule="evenodd" clip-rule="evenodd" d="M13.6503 51.3399L2.90186 48.289L10.2842 48.081L13.6503 51.3399Z" fill="white"/>
<path fill-rule="evenodd" clip-rule="evenodd" d="M13.6503 28.5506L5.47869 32.7341L7.15016 32.9421L0 36.617L7.49838 34.1671V47.5032L9.05378 48.1966H7.49838V49.6296L13.6503 51.3399V47.249L16.7379 42.2103L24.0041 54.0672L30.0167 55.7776L31.8971 56.3092L19.8022 37.218L30.2257 20.1144L21.3344 24.6908L13.6503 37.2411V28.5506Z" fill="white"/>
</g>
<defs>
<clipPath id="clip0_1_9456">
<rect width="79" height="81" fill="white"/>
</clipPath>
</defs>
</svg>
