<svg width="47" height="49" viewBox="0 0 47 49" fill="none" xmlns="http://www.w3.org/2000/svg">
<g clip-path="url(#clip0_11_67)">
<path fill-rule="evenodd" clip-rule="evenodd" d="M40.6469 17.2714L41.448 17.7048L45.4671 19.8021L44.2102 19.5644V28.373L43.2711 29.0441L47.0001 29.2119L44.2102 30.0228V30.0508L40.6469 31.0575V31.0435L40.6193 31.0575L40.6469 31.0295V17.3133L40.6055 17.2714L40.6469 17.2993V17.2714Z" fill="black"/>
<path fill-rule="evenodd" clip-rule="evenodd" d="M26.2001 9.833L39.1137 16.5723V21.2003H35.5366V18.7534L24.3494 12.6713L21.3385 14.475V15.999L39.1275 25.3668L39.0446 31.4629L30.1916 33.9237L17.2642 27.1845V22.5425H20.8413V25.0033L30.7026 30.5961L35.4261 29.5754V27.0307L17.7061 17.7048L17.7614 12.2938L24.3494 8.86826L26.2001 9.833Z" fill="black"/>
<path fill-rule="evenodd" clip-rule="evenodd" d="M16.6151 41.6977L17.2366 43.8509L24.1975 48.9263L24.2113 49.0102L24.2666 48.9822L24.2804 48.9962V48.9682L31.559 43.8649L32.1805 41.7117L46.5443 30.4982L24.2666 42.215L2.09937 30.652L16.6289 41.6977H16.6151ZM22.554 43.4314C22.7059 43.4314 22.8302 43.4734 22.8992 43.5712C22.9683 43.6691 23.0097 43.7949 23.0097 43.9487C23.0097 44.0466 22.9959 44.1445 22.9545 44.2284C22.9269 44.3123 22.8854 44.3822 22.8302 44.4521C22.7749 44.522 22.7197 44.5919 22.6645 44.6478C22.6092 44.7038 22.554 44.7737 22.4987 44.8296C22.4435 44.8855 22.402 44.9554 22.3744 45.0254C22.333 45.0953 22.3192 45.1652 22.3192 45.2491V45.277H22.9821V45.4868H22.0982V45.305C22.0982 45.1931 22.112 45.0953 22.1534 45.0114C22.1811 44.9275 22.2363 44.8576 22.2777 44.7877C22.333 44.7177 22.3882 44.6478 22.4435 44.5919C22.4987 44.536 22.554 44.4661 22.6092 44.4102C22.6645 44.3402 22.7059 44.2703 22.7335 44.2004C22.7611 44.1305 22.7888 44.0466 22.7888 43.9487C22.7888 43.8369 22.7749 43.767 22.7335 43.7111C22.6921 43.6551 22.6368 43.6272 22.554 43.6272C22.4711 43.6272 22.4159 43.6551 22.3744 43.7111C22.333 43.767 22.3192 43.8369 22.3192 43.9348V44.1165H22.112V43.9487C22.112 43.7949 22.1534 43.6691 22.2225 43.5712C22.2915 43.4734 22.4158 43.4314 22.5678 43.4314H22.554ZM23.2031 43.9487C23.2031 43.7949 23.2445 43.6691 23.3136 43.5712C23.3826 43.4734 23.5069 43.4314 23.6589 43.4314C23.8108 43.4314 23.9351 43.4734 24.0042 43.5712C24.087 43.6691 24.1146 43.7949 24.1146 43.9487V44.9974C24.1146 45.1512 24.0732 45.277 24.0042 45.3749C23.9213 45.4728 23.8108 45.5147 23.6589 45.5147C23.5069 45.5147 23.3826 45.4728 23.3136 45.3749C23.2445 45.277 23.2031 45.1512 23.2031 44.9974V43.9487ZM23.4241 45.0114C23.4241 45.1092 23.4379 45.1792 23.4793 45.2351C23.5208 45.291 23.576 45.319 23.6589 45.319C23.7417 45.319 23.797 45.291 23.8384 45.2351C23.8799 45.1792 23.8937 45.1092 23.8937 45.0114V43.9348C23.8937 43.8369 23.8799 43.767 23.8384 43.7111C23.797 43.6551 23.7417 43.6272 23.6589 43.6272C23.576 43.6272 23.5208 43.6551 23.4793 43.7111C23.4379 43.767 23.4241 43.8369 23.4241 43.9348V45.0114ZM24.7914 43.4314C24.9433 43.4314 25.0676 43.4734 25.1367 43.5712C25.2057 43.6691 25.2472 43.7949 25.2472 43.9487C25.2472 44.0466 25.2334 44.1445 25.1919 44.2284C25.1643 44.3123 25.1091 44.3822 25.0676 44.4521C25.0124 44.522 24.9571 44.5919 24.9019 44.6478C24.8466 44.7038 24.7914 44.7737 24.7362 44.8296C24.6809 44.8855 24.6395 44.9554 24.6119 45.0254C24.5704 45.0953 24.5566 45.1652 24.5566 45.2491V45.277H25.2196V45.4868H24.3356V45.305C24.3356 45.1931 24.3494 45.0953 24.3909 45.0114C24.4185 44.9275 24.4599 44.8576 24.5152 44.7877C24.5704 44.7177 24.6257 44.6478 24.6809 44.5919C24.7362 44.536 24.7914 44.4661 24.8466 44.4102C24.9019 44.3402 24.9433 44.2703 24.9709 44.2004C24.9986 44.1305 25.0262 44.0466 25.0262 43.9487C25.0262 43.8369 25.0124 43.767 24.9709 43.7111C24.9295 43.6551 24.8743 43.6272 24.7914 43.6272C24.7085 43.6272 24.6533 43.6551 24.6119 43.7111C24.5704 43.767 24.5566 43.8369 24.5566 43.9348V44.1165H24.3494V43.9487C24.3494 43.7949 24.3909 43.6691 24.4599 43.5712C24.529 43.4734 24.6533 43.4314 24.8052 43.4314H24.7914ZM25.8963 43.4314C26.0482 43.4314 26.1725 43.4734 26.2416 43.5712C26.3106 43.6691 26.3521 43.7949 26.3521 43.9487V44.0047C26.3521 44.1025 26.3383 44.2004 26.2968 44.2703C26.2554 44.3402 26.2002 44.3962 26.1173 44.4241C26.2002 44.4521 26.2692 44.508 26.3106 44.5779C26.3521 44.6478 26.3659 44.7457 26.3659 44.8436V44.9974C26.3659 45.1512 26.3245 45.277 26.2554 45.3749C26.1863 45.4728 26.062 45.5147 25.9101 45.5147C25.7582 45.5147 25.6477 45.4728 25.5648 45.3749C25.4958 45.277 25.4543 45.1512 25.4543 44.9974V44.8576H25.6615V45.0114C25.6615 45.1092 25.6753 45.1792 25.7168 45.2351C25.7582 45.291 25.8134 45.319 25.8963 45.319C25.9792 45.319 26.0344 45.291 26.0759 45.2351C26.1173 45.1792 26.1311 45.1092 26.1311 44.9974V44.8436C26.1311 44.6478 26.0482 44.55 25.8825 44.536H25.7582V44.3263H25.8963C25.9654 44.3263 26.0344 44.2983 26.0759 44.2563C26.1173 44.2144 26.1449 44.1445 26.1449 44.0466V43.9487C26.1449 43.8509 26.1311 43.767 26.0897 43.7111C26.0482 43.6551 25.993 43.6272 25.9101 43.6272C25.8273 43.6272 25.772 43.6551 25.7306 43.7111C25.6891 43.767 25.6753 43.8369 25.6753 43.9348V44.0466H25.4682V43.9487C25.4682 43.7949 25.5096 43.6691 25.5786 43.5712C25.6477 43.4734 25.772 43.4314 25.9239 43.4314H25.8963Z" fill="black"/>
<path fill-rule="evenodd" clip-rule="evenodd" d="M17.3609 6.65915L17.9272 4.70169L24.2666 0.0736935L24.2804 0.00378418L24.3218 0.0317479L24.3494 0.017766V0.0457298L30.9651 4.70169L31.5313 6.65915L44.6245 16.8799L24.3356 6.19775L4.12964 16.7261L17.3609 6.65915Z" fill="black"/>
<path fill-rule="evenodd" clip-rule="evenodd" d="M2.08545 30.638L24.3493 40.4393L46.5303 30.4842L24.3493 37.615L2.08545 30.638Z" fill="black"/>
<path fill-rule="evenodd" clip-rule="evenodd" d="M16.7671 28.2611L20.1923 33.9937L20.9519 31.9383L28.9901 34.2174L20.1094 29.5614L19.9851 30.652L16.7671 28.2611Z" fill="black"/>
<path fill-rule="evenodd" clip-rule="evenodd" d="M21.4075 32.959L28.2855 34.3991L23.0648 34.3013L21.4075 32.959Z" fill="black"/>
<path fill-rule="evenodd" clip-rule="evenodd" d="M8.12097 31.0575L1.72632 29.2119L6.11833 29.086L8.12097 31.0575Z" fill="black"/>
<path fill-rule="evenodd" clip-rule="evenodd" d="M8.12107 17.2714L3.25948 19.8021L4.25389 19.9279L0 22.151L4.46106 20.669V28.7365L5.38642 29.156H4.46106V30.0228L8.12107 31.0575V28.5827L9.95798 25.5347L14.2809 32.7073L17.8581 33.742L18.9768 34.0636L11.7811 22.5146L17.9824 12.168L12.6926 14.9364L8.12107 22.5286V17.2714Z" fill="black"/>
</g>
<defs>
<clipPath id="clip0_11_67">
<rect width="47" height="49" fill="white"/>
</clipPath>
</defs>
</svg>
